<?xml version="1.0" encoding="UTF-8" standalone="no"?>
<!-- Created with Inkscape (http://www.inkscape.org/) -->

<svg
   xmlns:dc="http://purl.org/dc/elements/1.1/"
   xmlns:cc="http://creativecommons.org/ns#"
   xmlns:rdf="http://www.w3.org/1999/02/22-rdf-syntax-ns#"
   xmlns:svg="http://www.w3.org/2000/svg"
   xmlns="http://www.w3.org/2000/svg"
   xmlns:sodipodi="http://sodipodi.sourceforge.net/DTD/sodipodi-0.dtd"
   xmlns:inkscape="http://www.inkscape.org/namespaces/inkscape"
   sodipodi:docname="ui-box.svg"
   inkscape:version="0.48.4 r9939"
   version="1.1"
   id="svg2"
   height="1052.3622047"
   width="744.09448819">
  <defs
     id="defs4" />
  <sodipodi:namedview
     id="base"
     pagecolor="#ffffff"
     bordercolor="#666666"
     borderopacity="1.0"
     inkscape:pageopacity="0.0"
     inkscape:pageshadow="2"
     inkscape:zoom="2.8284271"
     inkscape:cx="-368.79839"
     inkscape:cy="648.1289"
     inkscape:document-units="px"
     inkscape:current-layer="layer4"
     showgrid="false"
     inkscape:window-width="1366"
     inkscape:window-height="706"
     inkscape:window-x="-8"
     inkscape:window-y="-8"
     inkscape:window-maximized="1" />
  <metadata
     id="metadata7">
    <rdf:RDF>
      <cc:Work
         rdf:about="">
        <dc:format>image/svg+xml</dc:format>
        <dc:type
           rdf:resource="http://purl.org/dc/dcmitype/StillImage" />
        <dc:title></dc:title>
      </cc:Work>
    </rdf:RDF>
  </metadata>
  <g
     inkscape:groupmode="layer"
     id="layer4"
     inkscape:label="background">
    <rect
       style="fill:#15182e;fill-opacity:1;stroke:none"
       id="rect5306"
       width="107.75"
       height="108"
       x="-400"
       y="341.61218"
       inkscape:export-filename="C:\Users\Kyle\Documents\path3761-4.png"
       inkscape:export-xdpi="102.16134"
       inkscape:export-ydpi="102.16134" />
  </g>
  <g
     inkscape:label="base"
     inkscape:groupmode="layer"
     id="layer1"
     style="display:inline">
    <path
       style="font-size:medium;font-style:normal;font-variant:normal;font-weight:normal;font-stretch:normal;text-indent:0;text-align:start;text-decoration:none;line-height:normal;letter-spacing:normal;word-spacing:normal;text-transform:none;direction:ltr;block-progression:tb;writing-mode:lr-tb;text-anchor:start;baseline-shift:baseline;color:#000000;fill:#000000;fill-opacity:1;stroke:none;stroke-width:5;marker:none;visibility:visible;display:inline;overflow:visible;enable-background:accumulate;font-family:Sans;-inkscape-font-specification:Sans"
       d="m -398.54875,340.36218 c 0,0 -2.5,2.50639 -2.5,2.5 l 0,22.8125 0,2.5 2.5,0 7.15625,0 c -0.21811,0.94936 -0.39778,1.91823 -0.5,2.90625 l -6.25,0 0,5 6.09375,0 3.09375,0 2.15625,0 0,-5 c 0.13152,-0.99965 0.31584,-1.96273 0.59375,-2.90625 l 10.46875,0 2.5,0 0,-2.5 0,-10.375 c 0.89657,-0.25714 1.8339,-0.46901 2.78125,-0.59375 l 5,0 0,-2.25 0,-0.46875 0,-2.5 0,-6.6875 -5,0 0,6.8125 c -0.94444,0.0976 -1.87241,0.26468 -2.78125,0.46875 l 0,-7.21875 0,-2.5 -2.5,0 -22.8125,0 z m 2.5,5 17.8125,0 0,6.40625 c -5.00282,2.36865 -9.0464,6.41335 -11.4375,11.40625 l -6.375,0 0,-17.8125 z m 17.8125,12.21875 0,5.59375 -5.625,0 c 1.45811,-2.23551 3.38205,-4.14769 5.625,-5.59375 z"
       id="path3761"
       inkscape:connector-curvature="0"
       inkscape:export-filename="C:\Users\Kyle\Documents\path3761-4.png"
       inkscape:export-xdpi="102.16134"
       inkscape:export-ydpi="102.16134" />
    <path
       style="font-size:medium;font-style:normal;font-variant:normal;font-weight:normal;font-stretch:normal;text-indent:0;text-align:start;text-decoration:none;line-height:normal;letter-spacing:normal;word-spacing:normal;text-transform:none;direction:ltr;block-progression:tb;writing-mode:lr-tb;text-anchor:start;baseline-shift:baseline;color:#000000;fill:#000000;fill-opacity:1;stroke:none;stroke-width:5;marker:none;visibility:visible;display:inline;overflow:visible;enable-background:accumulate;font-family:Sans;-inkscape-font-specification:Sans"
       d="m -398.8125,340.375 a 2.50025,2.50025 0 0 0 -2.25,2.5 l 0,107.75 a 2.50025,2.50025 0 0 0 2.5,2.5 l 107.75,0 a 2.50025,2.50025 0 0 0 2.5,-2.5 l 0,-107.75 a 2.50025,2.50025 0 0 0 -2.5,-2.5 l -107.75,0 a 2.50025,2.50025 0 0 0 -0.25,0 z m 2.75,5 102.75,0 0,102.75 -102.75,0 0,-102.75 z"
       id="rect3800"
       inkscape:connector-curvature="0"
       inkscape:export-filename="C:\Users\Kyle\Documents\path3761-4.png"
       inkscape:export-xdpi="102.16134"
       inkscape:export-ydpi="102.16134" />
    <path
       style="font-size:medium;font-style:normal;font-variant:normal;font-weight:normal;font-stretch:normal;text-indent:0;text-align:start;text-decoration:none;line-height:normal;letter-spacing:normal;word-spacing:normal;text-transform:none;direction:ltr;block-progression:tb;writing-mode:lr-tb;text-anchor:start;baseline-shift:baseline;color:#000000;fill:#000000;fill-opacity:1;stroke:none;stroke-width:5;marker:none;visibility:visible;display:inline;overflow:visible;enable-background:accumulate;font-family:Sans;-inkscape-font-specification:Sans"
       d="m -290.79874,340.36218 c 0,0 2.5,2.50639 2.5,2.5 l 0,22.8125 0,2.5 -2.5,0 -7.15625,0 c 0.21811,0.94936 0.39778,1.91823 0.5,2.90625 l 6.25,0 0,5 -6.09375,0 -3.09375,0 -2.15625,0 0,-5 c -0.13152,-0.99965 -0.31584,-1.96273 -0.59375,-2.90625 l -10.46875,0 -2.5,0 0,-2.5 0,-10.375 c -0.89657,-0.25714 -1.8339,-0.46901 -2.78125,-0.59375 l -5,0 0,-2.25 0,-0.46875 0,-2.5 0,-6.6875 5,0 0,6.8125 c 0.94444,0.0976 1.87241,0.26468 2.78125,0.46875 l 0,-7.21875 0,-2.5 2.5,0 22.8125,0 z m -2.5,5 -17.8125,0 0,6.40625 c 5.00282,2.36865 9.0464,6.41335 11.4375,11.40625 l 6.375,0 0,-17.8125 z m -17.8125,12.21875 0,5.59375 5.625,0 c -1.45811,-2.23551 -3.38205,-4.14769 -5.625,-5.59375 z"
       id="path3761-1"
       inkscape:connector-curvature="0"
       inkscape:export-filename="C:\Users\Kyle\Documents\path3761-4.png"
       inkscape:export-xdpi="102.16134"
       inkscape:export-ydpi="102.16134" />
    <path
       style="font-size:medium;font-style:normal;font-variant:normal;font-weight:normal;font-stretch:normal;text-indent:0;text-align:start;text-decoration:none;line-height:normal;letter-spacing:normal;word-spacing:normal;text-transform:none;direction:ltr;block-progression:tb;writing-mode:lr-tb;text-anchor:start;baseline-shift:baseline;color:#000000;fill:#000000;fill-opacity:1;stroke:none;stroke-width:5;marker:none;visibility:visible;display:inline;overflow:visible;enable-background:accumulate;font-family:Sans;-inkscape-font-specification:Sans"
       d="m -398.54875,453.11218 c 0,0 -2.5,-2.50639 -2.5,-2.5 l 0,-22.8125 0,-2.5 2.5,0 7.15625,0 c -0.21811,-0.94936 -0.39778,-1.91823 -0.5,-2.90625 l -6.25,0 0,-5 6.09375,0 3.09375,0 2.15625,0 0,5 c 0.13152,0.99965 0.31584,1.96273 0.59375,2.90625 l 10.46875,0 2.5,0 0,2.5 0,10.375 c 0.89657,0.25714 1.8339,0.46901 2.78125,0.59375 l 5,0 0,2.25 0,0.46875 0,2.5 0,6.6875 -5,0 0,-6.8125 c -0.94444,-0.0976 -1.87241,-0.26468 -2.78125,-0.46875 l 0,7.21875 0,2.5 -2.5,0 -22.8125,0 z m 2.5,-5 17.8125,0 0,-6.40625 c -5.00282,-2.36865 -9.0464,-6.41335 -11.4375,-11.40625 l -6.375,0 0,17.8125 z m 17.8125,-12.21875 0,-5.59375 -5.625,0 c 1.45811,2.23551 3.38205,4.14769 5.625,5.59375 z"
       id="path3761-7"
       inkscape:connector-curvature="0"
       inkscape:export-filename="C:\Users\Kyle\Documents\path3761-4.png"
       inkscape:export-xdpi="102.16134"
       inkscape:export-ydpi="102.16134" />
    <path
       style="font-size:medium;font-style:normal;font-variant:normal;font-weight:normal;font-stretch:normal;text-indent:0;text-align:start;text-decoration:none;line-height:normal;letter-spacing:normal;word-spacing:normal;text-transform:none;direction:ltr;block-progression:tb;writing-mode:lr-tb;text-anchor:start;baseline-shift:baseline;color:#000000;fill:#000000;fill-opacity:1;stroke:none;stroke-width:5;marker:none;visibility:visible;display:inline;overflow:visible;enable-background:accumulate;font-family:Sans;-inkscape-font-specification:Sans"
       d="m -290.79874,453.11218 c 0,0 2.5,-2.50639 2.5,-2.5 l 0,-22.8125 0,-2.5 -2.5,0 -7.15625,0 c 0.21811,-0.94936 0.39778,-1.91823 0.5,-2.90625 l 6.25,0 0,-5 -6.09375,0 -3.09375,0 -2.15625,0 0,5 c -0.13152,0.99965 -0.31584,1.96273 -0.59375,2.90625 l -10.46875,0 -2.5,0 0,2.5 0,10.375 c -0.89657,0.25714 -1.8339,0.46901 -2.78125,0.59375 l -5,0 0,2.25 0,0.46875 0,2.5 0,6.6875 5,0 0,-6.8125 c 0.94444,-0.0976 1.87241,-0.26468 2.78125,-0.46875 l 0,7.21875 0,2.5 2.5,0 22.8125,0 z m -2.5,-5 -17.8125,0 0,-6.40625 c 5.00282,-2.36865 9.0464,-6.41335 11.4375,-11.40625 l 6.375,0 0,17.8125 z m -17.8125,-12.21875 0,-5.59375 5.625,0 c -1.45811,2.23551 -3.38205,4.14769 -5.625,5.59375 z"
       id="path3761-4"
       inkscape:connector-curvature="0"
       inkscape:export-filename="C:\Users\Kyle\Documents\path3761-4.png"
       inkscape:export-xdpi="102.16134"
       inkscape:export-ydpi="102.16134" />
  </g>
  <g
     style="display:inline"
     id="g5139"
     inkscape:groupmode="layer"
     inkscape:label="highlight">
    <path
       style="font-size:medium;font-style:normal;font-variant:normal;font-weight:normal;font-stretch:normal;text-indent:0;text-align:start;text-decoration:none;line-height:normal;letter-spacing:normal;word-spacing:normal;text-transform:none;direction:ltr;block-progression:tb;writing-mode:lr-tb;text-anchor:start;baseline-shift:baseline;color:#000000;fill:#6e7371;fill-opacity:1;stroke:none;stroke-width:5;marker:none;visibility:visible;display:inline;overflow:visible;enable-background:accumulate;font-family:Sans;-inkscape-font-specification:Sans"
       d="M -398.5625 340.375 C -398.5625 340.375 -401.0625 342.88139 -401.0625 342.875 L -401.0625 365.6875 L -401.0625 368.1875 L -398.75 368.1875 L -398.46875 365.96875 L -394.21875 365.46875 C -394.21875 365.46875 -388.21875 365.84375 -388.6875 366 C -389.12841 366.14697 -391.15181 367.96037 -391.40625 368.1875 C -391.62436 369.13686 -391.80403 370.10573 -391.90625 371.09375 L -396.09375 371.09375 L -398.15625 373.09375 L -398.15625 373.625 L -389.625 373.8125 L -389.34375 370.1875 L -388.65625 367 L -388.03125 365.6875 L -375.90625 365.5 L -375.8125 353.375 L -373.78125 352.6875 L -368.21875 352.25 L -368.0625 342.96875 L -365.46875 342.875 L -365.46875 342.8125 L -370.46875 342.8125 L -370.46875 342.90625 L -368.21875 343.0625 L -370.46875 345.40625 L -370.46875 349.625 C -371.41319 349.7226 -372.34116 349.88968 -373.25 350.09375 L -375.53125 352.96875 L -375.71875 342.875 L -373.25 342.90625 L -373.25 342.875 L -373.25 340.375 L -375.75 340.375 L -398.5625 340.375 z M -398.375 342.9375 L -375.8125 342.9375 L -378.25 345.375 L -378.25 351.78125 C -383.25282 354.1499 -387.2964 358.1946 -389.6875 363.1875 L -396.0625 363.1875 L -396.0625 363.15625 L -398.375 365.4375 L -398.375 342.9375 z M -375.8125 353.21875 L -378.25 357.59375 L -378.25 363.1875 L -383.875 363.1875 L -387.5 365.21875 L -387.53125 365.25 L -387.59375 365.25 L -387.59375 365.15625 L -387.3125 363.625 L -384.125 358.875 L -380.5 355.71875 L -375.8125 353.21875 z "
       id="path5141"
       inkscape:export-filename="C:\Users\Kyle\Documents\path3761-4.png"
       inkscape:export-xdpi="102.16134"
       inkscape:export-ydpi="102.16134" />
    <path
       style="font-size:medium;font-style:normal;font-variant:normal;font-weight:normal;font-stretch:normal;text-indent:0;text-align:start;text-decoration:none;line-height:normal;letter-spacing:normal;word-spacing:normal;text-transform:none;direction:ltr;block-progression:tb;writing-mode:lr-tb;text-anchor:start;baseline-shift:baseline;color:#000000;fill:#6e7371;fill-opacity:1;stroke:none;stroke-width:5;marker:none;visibility:visible;display:inline;overflow:visible;enable-background:accumulate;font-family:Sans;-inkscape-font-specification:Sans"
       d="M -398.8125 340.375 A 2.50025 2.50025 0 0 0 -401.0625 342.875 L -401.0625 450.625 A 2.50025 2.50025 0 0 0 -400.25 452.4375 L -398.875 451.0625 L -317.625 450.71875 L -317.625 450.6875 L -290.8125 450.6875 L -290.6875 425.3125 L -290.6875 422.875 L -290.6875 368.875 L -290.8125 368.84375 L -290.5 342.5 L -289.59375 341.59375 L -289.09375 341.0625 A 2.50025 2.50025 0 0 0 -290.8125 340.375 L -398.5625 340.375 A 2.50025 2.50025 0 0 0 -398.8125 340.375 z M -323.09375 342.75 L -323.09375 342.8125 L -323.90625 342.8125 L -323.90625 343 L -321.5 343.03125 L -323.90625 345.375 L -323.90625 349.5 L -323.90625 352 L -323.90625 352.46875 L -323.90625 354.71875 L -321.625 352.4375 L -316.6875 352.28125 L -314.03125 353.59375 L -314.0625 353.625 L -316.125 355.3125 L -316.125 355.34375 L -316.125 365.6875 L -316.125 368.15625 L -314.03125 366.09375 L -310.125 365.71875 L -301.21875 365.96875 L -303.15625 368.1875 C -302.87834 369.13102 -302.69402 370.0941 -302.5625 371.09375 L -302.5625 376.0625 L -300.09375 373.84375 L -291.0625 373.9375 L -291.1875 374.09375 L -293.3125 376.09375 L -293.3125 376.125 L -293.3125 417.40625 L -297.3125 417.40625 L -300.40625 417.40625 L -302.5625 417.40625 L -302.5625 422.40625 C -302.69402 423.4059 -302.87834 424.36898 -303.15625 425.3125 L -313.625 425.3125 L -316.125 425.3125 L -316.125 427.8125 L -316.125 438.1875 C -317.02157 438.44464 -317.9589 438.65651 -318.90625 438.78125 L -323.90625 438.78125 L -323.90625 441.03125 L -323.90625 441.5 L -323.90625 444 L -323.90625 448.125 L -365.46875 448.125 L -367.8125 450.46875 L -367.78125 448.125 L -373.25 448.125 L -375.40625 450.34375 L -375.34375 448.125 L -396.03125 448.125 L -396.0625 448.125 L -398.5625 450.6875 L -398.5625 427.9375 L -397.40625 427.9375 L -398.46875 427.8125 L -398.625 419.9375 L -396.0625 419.59375 L -396.0625 418.65625 L -398.6875 418.625 L -398.625 375.125 L -398.53125 375.125 L -398.53125 342.96875 L -365.5 342.875 L -365.5 343 L -323.09375 342.75 z M -319.875 342.75 L -316.125 342.75 L -316.125 342.875 L -316.125 343 C -315.91988 342.99975 -315.29632 342.96014 -315.28125 342.96875 C -315.17187 343.03125 -314.0625 343.34375 -314.0625 343.34375 L -316.125 345.40625 L -316.125 350.09375 C -317.03384 349.88968 -317.96181 349.7226 -318.90625 349.625 L -321 351.8125 L -321.3125 343.125 C -321.3125 343.125 -320.07014 343.09801 -318.90625 343.0625 L -318.90625 342.8125 L -319.875 342.8125 L -319.875 342.75 z M -313.5625 342.78125 L -290.96875 343 L -293.3125 345.375 L -293.3125 345.40625 L -293.3125 363.1875 L -299.6875 363.1875 L -300.8125 365.21875 L -303.46875 361.375 L -306.5625 357.6875 L -312.625 353.84375 L -313.4375 352.78125 L -313.125 352.625 L -313.5625 342.78125 z M -313.40625 353.34375 L -311.09375 357.625 L -311.0625 357.65625 C -308.85118 359.09653 -306.94207 360.97658 -305.5 363.1875 L -311.125 363.1875 L -313.125 365.21875 L -313.5 365.71875 L -313.40625 353.34375 z M -301.125 365.65625 L -291.0625 366 L -291.21875 366.15625 L -293.3125 368.1875 L -293.3125 371.09375 L -297.46875 371.09375 L -299.5 373.28125 L -300.5625 367.46875 L -301.125 365.65625 z M -299.78125 419.96875 L -291.1875 420.375 L -291.1875 420.40625 L -293.3125 422.40625 L -293.3125 425.3125 L -297.96875 425.3125 C -297.96647 425.30256 -297.97102 425.29119 -297.96875 425.28125 L -300.59375 427.625 L -299.78125 419.96875 z M -301.1875 428.0625 L -291.09375 428.0625 L -291.1875 428.3125 L -293.375 430.3125 L -293.3125 430.3125 L -293.3125 448.125 L -311.125 448.125 L -313.46875 450.5625 L -313.65625 440.4375 L -316.125 443.40625 L -316.125 448.125 L -318.90625 448.125 L -318.90625 448.09375 L -321.125 450.46875 L -321.21875 441.59375 L -318.15625 441.5625 L -313.28125 440 L -313.46875 440.21875 L -309.84375 438.375 L -304 433.4375 L -302.0625 430.25 L -301.1875 428.0625 z M -313.40625 428.09375 L -301.375 428.09375 L -305.5 430.3125 C -306.95811 432.54801 -308.88205 434.46019 -311.125 435.90625 L -313.125 439.65625 L -313.46875 439.625 L -313.40625 428.09375 z "
       id="path5143"
       inkscape:export-filename="C:\Users\Kyle\Documents\path3761-4.png"
       inkscape:export-xdpi="102.16134"
       inkscape:export-ydpi="102.16134" />
    <path
       style="font-size:medium;font-style:normal;font-variant:normal;font-weight:normal;font-stretch:normal;text-indent:0;text-align:start;text-decoration:none;line-height:normal;letter-spacing:normal;word-spacing:normal;text-transform:none;direction:ltr;block-progression:tb;writing-mode:lr-tb;text-anchor:start;baseline-shift:baseline;color:#000000;fill:#6e7371;fill-opacity:1;stroke:none;stroke-width:5;marker:none;visibility:visible;display:inline;overflow:visible;enable-background:accumulate;font-family:Sans;-inkscape-font-specification:Sans"
       d="M -398.15625 417.40625 L -398.15625 420.03125 L -389.71875 420.125 L -389.4375 419.84375 L -386.8125 417.40625 L -388.96875 417.40625 L -392.0625 417.40625 L -398.15625 417.40625 z M -389.71875 420.125 L -391.90625 422.40625 C -391.80403 423.39427 -391.62436 424.36314 -391.40625 425.3125 L -396.0625 425.3125 L -398.40625 427.65625 L -398.3125 425.3125 L -398.5625 425.3125 L -398.75 425.3125 L -398.75 450.9375 L -398.5625 450.75 L -373.25 450.65625 L -373.25 450.625 L -373.25 448.15625 L -375.46875 450.40625 L -375.59375 440.5 L -373.59375 441.03125 L -368.46875 441.875 L -370.46875 443.875 L -370.46875 443.90625 L -370.46875 450.625 L -369.25 450.625 L -369.25 450.6875 L -365.46875 450.6875 L -365.46875 448.1875 L -367.59375 450.25 L -368.03125 441.5 L -365.46875 438.8125 L -365.46875 438.78125 L -370.46875 438.78125 C -371.4161 438.65651 -372.35343 438.44464 -373.25 438.1875 L -375.28125 439.96875 L -375.5625 440.0625 L -375.5625 427.6875 L -373.25 425.3125 L -375.75 425.3125 L -386.21875 425.3125 L -387.90625 427.375 L -387.96875 427.5 L -388.0625 427.5 L -389.1875 424.90625 L -389.4375 420.125 L -389.71875 420.125 z M -398.5 427.90625 L -388.25 427.9375 L -387.4375 429.875 L -384.78125 433.84375 L -379.65625 438.4375 L -375.90625 440.40625 L -378.25 441.71875 L -378.25 441.75 L -378.25 448.125 L -396.03125 448.125 L -396.0625 448.125 L -398.03125 450.1875 L -398.4375 450.5 L -398.5 427.90625 z M -388.125 427.96875 L -375.875 428 L -376.21875 428.34375 L -378.25 430.3125 L -378.25 435.90625 C -380.49295 434.46019 -382.41689 432.54801 -383.875 430.3125 L -388.125 427.96875 z M -399.09375 451.28125 L -399.8125 451.875 C -399.78125 451.90629 -399.78117 451.9063 -399.75 451.9375 L -399.09375 451.28125 z "
       id="path5147"
       inkscape:export-filename="C:\Users\Kyle\Documents\path3761-4.png"
       inkscape:export-xdpi="102.16134"
       inkscape:export-ydpi="102.16134" />
    <path
       style="fill:none;stroke:none;stroke-width:1px;stroke-linecap:butt;stroke-linejoin:miter;stroke-opacity:1"
       d="m -378.3125,345.42468 2.125,-2.09375 0,9.65625 -3.21875,-1.90625 z"
       id="path5151"
       inkscape:connector-curvature="0"
       inkscape:export-filename="C:\Users\Kyle\Documents\path3761-4.png"
       inkscape:export-xdpi="102.16134"
       inkscape:export-ydpi="102.16134" />
  </g>
  <g
     inkscape:groupmode="layer"
     id="layer2"
     inkscape:label="ridge"
     style="display:inline">
    <path
       style="font-size:medium;font-style:normal;font-variant:normal;font-weight:normal;font-stretch:normal;text-indent:0;text-align:start;text-decoration:none;line-height:normal;letter-spacing:normal;word-spacing:normal;text-transform:none;direction:ltr;block-progression:tb;writing-mode:lr-tb;text-anchor:start;baseline-shift:baseline;color:#000000;fill:#ffffff;fill-opacity:0.99215686;stroke:none;stroke-width:1px;marker:none;visibility:visible;display:inline;overflow:visible;enable-background:accumulate;font-family:Sans;-inkscape-font-specification:Sans"
       d="m -399,342.375 0,0.5 -0.125,30.75 0,0.5 0.5,0 9.125,0 0.53125,0 -0.0312,-0.53125 c 0,0 -0.0923,-4.48617 1.09375,-7.40625 l 12.15625,0 0.5,0 0,-0.5 0,-12.0625 c 0.74955,-0.24493 1.44123,-0.45406 1.75,-0.53125 2.31481,-0.5787 5.46875,-0.46875 5.46875,-0.46875 l 0.53125,0 0,-0.5 0,-9.25 0,-0.5 -0.5,0 -30.5,0 -0.5,0 z m 1,1 21.75,0 0,9.5625 c -0.18115,0.0672 -0.35129,0.11552 -0.53125,0.1875 -1.20603,0.48241 -2.3312,1.08392 -5.53125,3.59375 -2.73222,2.14292 -4.59783,4.97937 -6.25,8.46875 l -9.53125,0 L -398,343.375 z m 22.75,0 6.75,0 0,8.25 c -0.69885,-0.0144 -3.05652,-0.0484 -5.25,0.5 -0.30163,0.0754 -0.85762,0.25739 -1.5,0.46875 l 0,-9.21875 z m -1,10.59375 0,11.21875 -11.1875,0 c 1.55998,-3.20197 3.29127,-5.75909 5.75,-7.6875 3.17495,-2.49015 4.11227,-3.01366 5.25,-3.46875 0.0618,-0.0247 0.12472,-0.0383 0.1875,-0.0625 z m -21.84375,12.21875 9.09375,0 c -1.05389,2.86845 -0.98675,6.2599 -0.96875,6.9375 l -8.15625,0 0.0312,-6.9375 z"
       id="path4985"
       inkscape:connector-curvature="0"
       inkscape:export-filename="C:\Users\Kyle\Documents\path3761-4.png"
       inkscape:export-xdpi="102.16134"
       inkscape:export-ydpi="102.16134" />
    <path
       style="font-size:medium;font-style:normal;font-variant:normal;font-weight:normal;font-stretch:normal;text-indent:0;text-align:start;text-decoration:none;line-height:normal;letter-spacing:normal;word-spacing:normal;text-transform:none;direction:ltr;block-progression:tb;writing-mode:lr-tb;text-anchor:start;baseline-shift:baseline;color:#000000;fill:#ffffff;fill-opacity:1;stroke:none;stroke-width:1px;marker:none;visibility:visible;display:inline;overflow:visible;enable-background:accumulate;font-family:Sans;-inkscape-font-specification:Sans"
       d="m -368,342.375 0,1 60.59375,0 0,-1 -60.59375,0 z"
       id="path5023"
       inkscape:connector-curvature="0"
       inkscape:export-filename="C:\Users\Kyle\Documents\path3761-4.png"
       inkscape:export-xdpi="102.16134"
       inkscape:export-ydpi="102.16134" />
    <path
       style="font-size:medium;font-style:normal;font-variant:normal;font-weight:normal;font-stretch:normal;text-indent:0;text-align:start;text-decoration:none;line-height:normal;letter-spacing:normal;word-spacing:normal;text-transform:none;direction:ltr;block-progression:tb;writing-mode:lr-tb;text-anchor:start;baseline-shift:baseline;color:#000000;fill:#ffffff;fill-opacity:1;stroke:none;stroke-width:1px;marker:none;visibility:visible;display:inline;overflow:visible;enable-background:accumulate;font-family:Sans;-inkscape-font-specification:Sans"
       d="m -399.125,373.125 0,58.75 1,0 0,-58.75 -1,0 z"
       id="path4998"
       inkscape:connector-curvature="0"
       inkscape:export-filename="C:\Users\Kyle\Documents\path3761-4.png"
       inkscape:export-xdpi="102.16134"
       inkscape:export-ydpi="102.16134" />
    <path
       inkscape:connector-curvature="0"
       style="font-size:medium;font-style:normal;font-variant:normal;font-weight:normal;font-stretch:normal;text-indent:0;text-align:start;text-decoration:none;line-height:normal;letter-spacing:normal;word-spacing:normal;text-transform:none;direction:ltr;block-progression:tb;writing-mode:lr-tb;text-anchor:start;baseline-shift:baseline;color:#000000;fill:#ffffff;fill-opacity:0.99215686;stroke:none;stroke-width:1px;marker:none;visibility:visible;display:inline;overflow:visible;enable-background:accumulate;font-family:Sans;-inkscape-font-specification:Sans"
       d="m -398.98901,451.16552 0,-0.5 -0.125,-30.75 0,-0.5 0.5,0 9.125,0 0.53125,0 -0.0312,0.53125 c 0,0 -0.0923,4.48617 1.09375,7.40625 l 12.15625,0 0.5,0 0,0.5 0,12.0625 c 0.74955,0.24493 1.44123,0.45406 1.75,0.53125 2.31481,0.5787 5.46875,0.46875 5.46875,0.46875 l 0.53125,0 0,0.5 0,9.25 0,0.5 -0.5,0 -30.5,0 -0.5,0 z m 1,-1 21.75,0 0,-9.5625 c -0.18115,-0.0672 -0.35129,-0.11552 -0.53125,-0.1875 -1.20603,-0.48241 -2.3312,-1.08392 -5.53125,-3.59375 -2.73222,-2.14292 -4.59783,-4.97937 -6.25,-8.46875 l -9.53125,0 0.0937,21.8125 z m 22.75,0 6.75,0 0,-8.25 c -0.69885,0.0144 -3.05652,0.0484 -5.25,-0.5 -0.30163,-0.0754 -0.85762,-0.25739 -1.5,-0.46875 l 0,9.21875 z m -1,-10.59375 0,-11.21875 -11.1875,0 c 1.55998,3.20197 3.29127,5.75909 5.75,7.6875 3.17495,2.49015 4.11227,3.01366 5.25,3.46875 0.0618,0.0247 0.12472,0.0383 0.1875,0.0625 z m -21.84375,-12.21875 9.09375,0 c -1.05389,-2.86845 -0.98675,-6.2599 -0.96875,-6.9375 l -8.15625,0 0.0312,6.9375 z"
       id="path4985-0"
       inkscape:export-filename="C:\Users\Kyle\Documents\path3761-4.png"
       inkscape:export-xdpi="102.16134"
       inkscape:export-ydpi="102.16134" />
    <path
       inkscape:connector-curvature="0"
       style="font-size:medium;font-style:normal;font-variant:normal;font-weight:normal;font-stretch:normal;text-indent:0;text-align:start;text-decoration:none;line-height:normal;letter-spacing:normal;word-spacing:normal;text-transform:none;direction:ltr;block-progression:tb;writing-mode:lr-tb;text-anchor:start;baseline-shift:baseline;color:#000000;fill:#ffffff;fill-opacity:0.99215686;stroke:none;stroke-width:1px;marker:none;visibility:visible;display:inline;overflow:visible;enable-background:accumulate;font-family:Sans;-inkscape-font-specification:Sans"
       d="m -290.33948,342.37977 0,0.5 0.125,30.75 0,0.5 -0.5,0 -9.125,0 -0.53125,0 0.0312,-0.53125 c 0,0 0.0923,-4.48617 -1.09375,-7.40625 l -12.15625,0 -0.5,0 0,-0.5 0,-12.0625 c -0.74955,-0.24493 -1.44123,-0.45406 -1.75,-0.53125 -2.31481,-0.5787 -5.46875,-0.46875 -5.46875,-0.46875 l -0.53125,0 0,-0.5 0,-9.25 0,-0.5 0.5,0 30.5,0 0.5,0 z m -1,1 -21.75,0 0,9.5625 c 0.18115,0.0672 0.35129,0.11552 0.53125,0.1875 1.20603,0.48241 2.3312,1.08392 5.53125,3.59375 2.73222,2.14292 4.59783,4.97937 6.25,8.46875 l 9.53125,0 -0.0937,-21.8125 z m -22.75,0 -6.75,0 0,8.25 c 0.69885,-0.0144 3.05652,-0.0484 5.25,0.5 0.30163,0.0754 0.85762,0.25739 1.5,0.46875 l 0,-9.21875 z m 1,10.59375 0,11.21875 11.1875,0 c -1.55998,-3.20197 -3.29127,-5.75909 -5.75,-7.6875 -3.17495,-2.49015 -4.11227,-3.01366 -5.25,-3.46875 -0.0618,-0.0247 -0.12472,-0.0383 -0.1875,-0.0625 z m 21.84375,12.21875 -9.09375,0 c 1.05389,2.86845 0.98675,6.2599 0.96875,6.9375 l 8.15625,0 -0.0312,-6.9375 z"
       id="path4985-1"
       inkscape:export-filename="C:\Users\Kyle\Documents\path3761-4.png"
       inkscape:export-xdpi="102.16134"
       inkscape:export-ydpi="102.16134" />
    <path
       inkscape:connector-curvature="0"
       style="font-size:medium;font-style:normal;font-variant:normal;font-weight:normal;font-stretch:normal;text-indent:0;text-align:start;text-decoration:none;line-height:normal;letter-spacing:normal;word-spacing:normal;text-transform:none;direction:ltr;block-progression:tb;writing-mode:lr-tb;text-anchor:start;baseline-shift:baseline;color:#000000;fill:#ffffff;fill-opacity:0.99215686;stroke:none;stroke-width:1px;marker:none;visibility:visible;display:inline;overflow:visible;enable-background:accumulate;font-family:Sans;-inkscape-font-specification:Sans"
       d="m -290.32366,451.17224 0,-0.5 0.125,-30.75 0,-0.5 -0.5,0 -9.125,0 -0.53125,0 0.0312,0.53125 c 0,0 0.0923,4.48617 -1.09375,7.40625 l -12.15625,0 -0.5,0 0,0.5 0,12.0625 c -0.74955,0.24493 -1.44123,0.45406 -1.75,0.53125 -2.31481,0.5787 -5.46875,0.46875 -5.46875,0.46875 l -0.53125,0 0,0.5 0,9.25 0,0.5 0.5,0 30.5,0 0.5,0 z m -1,-1 -21.75,0 0,-9.5625 c 0.18115,-0.0672 0.35129,-0.11552 0.53125,-0.1875 1.20603,-0.48241 2.3312,-1.08392 5.53125,-3.59375 2.73222,-2.14292 4.59783,-4.97937 6.25,-8.46875 l 9.53125,0 -0.0937,21.8125 z m -22.75,0 -6.75,0 0,-8.25 c 0.69885,0.0144 3.05652,0.0484 5.25,-0.5 0.30163,-0.0754 0.85762,-0.25739 1.5,-0.46875 l 0,9.21875 z m 1,-10.59375 0,-11.21875 11.1875,0 c -1.55998,3.20197 -3.29127,5.75909 -5.75,7.6875 -3.17495,2.49015 -4.11227,3.01366 -5.25,3.46875 -0.0618,0.0247 -0.12472,0.0383 -0.1875,0.0625 z m 21.84375,-12.21875 -9.09375,0 c 1.05389,-2.86845 0.98675,-6.2599 0.96875,-6.9375 l 8.15625,0 -0.0312,6.9375 z"
       id="path4985-1-6"
       inkscape:export-filename="C:\Users\Kyle\Documents\path3761-4.png"
       inkscape:export-xdpi="102.16134"
       inkscape:export-ydpi="102.16134" />
    <path
       style="fill:none;stroke:#ffffff;stroke-width:1px;stroke-linecap:butt;stroke-linejoin:miter;stroke-opacity:1;display:inline"
       d="m -321.37451,450.66955 -47.46454,0"
       id="path5065"
       inkscape:connector-curvature="0"
       inkscape:export-filename="C:\Users\Kyle\Documents\path3761-4.png"
       inkscape:export-xdpi="102.16134"
       inkscape:export-ydpi="102.16134" />
    <path
       style="fill:none;stroke:#ffffff;stroke-width:1px;stroke-linecap:butt;stroke-linejoin:miter;stroke-opacity:1;display:inline"
       d="m -290.7028,419.98775 0,-47.33196"
       id="path5067"
       inkscape:connector-curvature="0"
       inkscape:export-filename="C:\Users\Kyle\Documents\path3761-4.png"
       inkscape:export-xdpi="102.16134"
       inkscape:export-ydpi="102.16134" />
  </g>
</svg>
